<svg xmlns="http://www.w3.org/2000/svg" viewBox="0 0 200 220" width="200" height="220">
  <rect x="30" y="200" width="100" height="12" rx="4" fill="#8B5E3C" stroke="#3d2b1a" stroke-width="2.5"/>
  <rect x="55" y="30" width="10" height="172" rx="4" fill="#A0724A" stroke="#3d2b1a" stroke-width="2.5"/>
  <rect x="55" y="30" width="100" height="10" rx="4" fill="#A0724A" stroke="#3d2b1a" stroke-width="2.5"/>
  <rect x="35" y="185" width="8" height="20" rx="3" fill="#8B5E3C" stroke="#3d2b1a" stroke-width="2" transform="rotate(-35, 39, 195)"/>
  <line x1="148" y1="40" x2="148" y2="80" stroke="#D4B896" stroke-width="4" stroke-linecap="round"/>
  <circle cx="148" cy="88" r="10" fill="none" stroke="#D4B896" stroke-width="3.5"/>
  <!-- HEAD - oversized goofy caricature -->
  <circle cx="148" cy="98" r="16" fill="#FFDAB9" stroke="#3d2b1a" stroke-width="2.5"/>
  <!-- Eyes - wide and bulging -->
  <circle cx="141" cy="94" r="4" fill="white" stroke="#3d2b1a" stroke-width="1.5"/>
  <circle cx="155" cy="94" r="4" fill="white" stroke="#3d2b1a" stroke-width="1.5"/>
  <circle cx="141" cy="95" r="2" fill="#3d2b1a"/>
  <circle cx="155" cy="95" r="2" fill="#3d2b1a"/>
  <!-- Worried eyebrows -->
  <line x1="137" y1="88" x2="143" y2="90" stroke="#3d2b1a" stroke-width="2" stroke-linecap="round"/>
  <line x1="159" y1="88" x2="153" y2="90" stroke="#3d2b1a" stroke-width="2" stroke-linecap="round"/>
  <!-- Wobbly mouth -->
  <path d="M141,106 Q148,102 155,106" fill="none" stroke="#3d2b1a" stroke-width="1.8" stroke-linecap="round"/>
  <!-- Sweat drop -->
  <ellipse cx="164" cy="90" rx="3" ry="4" fill="#87CEEB" stroke="#3d2b1a" stroke-width="1"/>
</svg>